<svg xmlns="http://www.w3.org/2000/svg" viewBox="0 0 512 512" width="512" height="512" role="img" aria-label="calibrate-pro mark"><title>calibrate-pro mark</title><desc>A ring drawn around a bright core, with the lens element inside the ring.</desc><defs><radialGradient id="mk-calibrate-pro-md1-halo" r="50%"><stop offset="0" stop-color="#ffab52" stop-opacity="0.34"/><stop offset="0.35" stop-color="#ffab52" stop-opacity="0.1"/><stop offset="1" stop-color="#ffab52" stop-opacity="0"/></radialGradient><radialGradient id="mk-calibrate-pro-md1-core"><stop offset="0" stop-color="#fff7e8"/><stop offset="0.45" stop-color="#fff7e8" stop-opacity="0.96"/><stop offset="0.72" stop-color="#ffd592" stop-opacity="0.55"/><stop offset="1" stop-color="#ffab52" stop-opacity="0"/></radialGradient></defs><rect width="512" height="512" rx="56" fill="#040405"/><circle cx="256" cy="256" r="196" fill="none" stroke="#e6e1d6" stroke-width="40" opacity="1"/><polyline points="365.08,241.84 358.41,239.71 351.86,237.24 345.44,234.45 339.17,231.34 333.07,227.92 327.14,224.2 321.4,220.18 315.88,215.89 310.57,211.33 305.5,206.5 300.67,201.43 296.11,196.12 291.82,190.6 287.8,184.86 284.08,178.93 280.66,172.83 277.55,166.56 274.76,160.14 272.29,153.59 270.16,146.92 280.87,145.01 287.42,147.48 293.83,150.27 300.11,153.38 306.21,156.8 312.14,160.52 317.88,164.54 323.4,168.83 328.71,173.39 333.78,178.22 338.61,183.29 343.17,188.6 347.46,194.12 351.48,199.86 355.2,205.79 358.62,211.89 361.73,218.17 364.52,224.58 366.99,231.13 369.12,237.8" fill="none" stroke="#e6e1d6" stroke-width="24" stroke-opacity="1" stroke-linecap="round" stroke-linejoin="round"/><polyline points="415.1,174.68 358.53,231.25 256,256" fill="none" stroke="#e6e1d6" stroke-width="18" stroke-opacity="1" stroke-linecap="round" stroke-linejoin="round"/><polyline points="337.32,96.9 280.75,153.47 256,256" fill="none" stroke="#e6e1d6" stroke-width="18" stroke-opacity="1" stroke-linecap="round" stroke-linejoin="round"/><circle cx="256" cy="256" r="42.5" fill="#e6e1d6" opacity="1"/></svg>
